<svg xmlns="http://www.w3.org/2000/svg" version="1.1" xmlns:xlink="http://www.w3.org/1999/xlink" xmlns:svgjs="http://svgjs.dev/svgjs" width="1000" height="1000"><g clip-path="url(#SvgjsClipPath1228)"><rect width="1000" height="1000" fill="#000000"></rect><g transform="matrix(1.053423626787058,0,0,1.053423626787058,149.99999999999994,291.85929270127906)"><svg xmlns="http://www.w3.org/2000/svg" version="1.1" xmlns:xlink="http://www.w3.org/1999/xlink" xmlns:svgjs="http://svgjs.dev/svgjs" width="664.5" height="395.17"><svg version="1.1" id="Layer_1" xmlns="http://www.w3.org/2000/svg" xmlns:xlink="http://www.w3.org/1999/xlink" x="0px" y="0px" enable-background="new 0 0 1024 1024" xml:space="preserve" viewBox="179.75 330.17 664.5 395.17">
<path fill="#fafafa" opacity="1.000000" stroke="none" d=" M384.956543,725.212769   C322.643890,726.119873 270.485016,704.116333 228.998322,658.273315   C204.294586,630.975525 189.512405,598.488342 182.697998,562.285034   C177.620438,535.309082 179.688721,508.694458 184.797394,481.957214   C189.254120,458.632141 198.773788,437.639313 211.738800,418.068329   C222.247879,402.204620 234.677048,388.230896 249.528244,375.934998   C276.240570,353.818756 306.596802,339.888794 340.192719,333.625549   C370.955292,327.890533 401.861206,329.365417 432.227051,337.970490   C459.930511,345.821075 485.650543,357.596893 508.281952,375.621948   C511.738342,378.374817 514.146545,378.014038 517.112366,374.622833   C521.853516,369.201721 528.187744,365.589722 534.353149,362.077667   C546.024353,355.429321 558.022339,349.420990 570.470215,344.232758   C597.510071,332.962646 625.719849,329.571686 654.648071,330.984772   C686.623779,332.546692 716.853882,340.970093 744.475525,357.134735   C798.618408,388.820068 831.957642,435.942322 841.627319,497.774994   C851.209900,559.050598 834.189880,613.573975 792.122498,659.593811   C760.693237,693.976074 721.730896,715.239197 675.796509,722.739380   C642.201538,728.224915 609.099731,724.889648 576.864990,713.548645   C559.944275,707.595520 544.122559,699.548828 529.165649,689.718567   C528.331055,689.169983 527.477356,688.644287 526.684021,688.040283   C521.728699,684.266785 521.613953,683.043701 526.460449,678.949036   C537.675415,669.473999 548.750488,659.867859 557.441101,647.893066   C561.159241,642.769836 564.757690,637.557495 568.320068,632.324219   C571.801025,627.210571 572.483521,626.885864 577.964355,629.992676   C592.336121,638.139465 607.670227,643.404724 624.022827,645.674866   C643.400513,648.365112 662.595581,647.426758 681.486511,642.242249   C714.833374,633.090454 741.024780,614.311157 757.447815,583.525269   C767.972900,563.795349 772.002014,542.494202 771.459595,519.915100   C770.041687,460.887024 721.036499,416.486084 664.925110,410.132111   C628.013611,405.952301 594.951660,414.641968 566.003418,438.313904   C562.305054,441.338165 561.963196,443.879089 564.061096,448.056763   C572.774536,465.407898 579.239990,483.577332 582.001770,502.875122   C589.539185,555.541626 576.501892,602.498596 542.836121,643.779724   C511.508484,682.193909 472.347076,708.334229 423.992004,720.147766   C411.353302,723.235535 398.465393,724.803040 384.956543,725.212769  M398.434692,410.207855   C384.363068,407.538452 370.323853,407.963959 356.252869,410.375183   C325.688934,415.612640 300.125610,429.929657 279.795837,453.178802   C262.201660,473.299469 252.943848,496.954437 252.069260,523.792175   C251.133469,552.506958 258.567627,578.764648 276.981171,600.940552   C314.925598,646.637817 375.103027,658.491394 429.160431,638.551270   C453.809479,629.459106 473.799713,613.299561 488.892029,591.850464   C513.640564,556.678040 516.324829,518.975769 497.041809,480.889740   C476.835541,440.980255 443.595428,417.620300 398.434692,410.207855  z"></path>
<path fill="#fafafa" opacity="1.000000" stroke="none" d=" M740.184937,556.132019   C749.408569,531.081970 747.885620,507.160004 735.131592,484.032684   C733.294800,480.701996 738.246704,470.920837 742.009521,470.237366   C744.171631,469.844635 744.855225,471.621918 745.746643,472.946960   C753.609375,484.633209 758.164307,497.637756 760.097900,511.462067   C763.693909,537.172607 758.860779,561.130005 744.236084,582.876648   C740.640625,588.223022 740.420776,588.035706 736.396667,583.075989   C731.117249,576.569153 730.377197,570.515320 735.908508,563.843384   C737.674316,561.713318 738.680420,558.953369 740.184937,556.132019  z"></path>
<path fill="#fafafa" opacity="1.000000" stroke="none" d=" M439.423340,504.568787   C442.223694,487.731934 447.383392,472.191101 455.722107,457.760162   C459.121246,451.877716 460.848236,451.745361 465.183746,456.722382   C475.046600,468.044495 484.271149,479.691650 490.566040,493.572113   C505.736420,527.023193 500.070282,564.398560 475.275848,591.639526   C470.121155,597.302856 465.178436,603.159363 460.154449,608.941101   C459.396515,609.813293 458.839294,610.908630 456.494904,610.996460   C438.741364,577.823853 434.813324,542.137451 439.423340,504.568787  z"></path>
<path fill="#fafafa" opacity="1.000000" stroke="none" d=" M279.054565,471.982239   C280.060577,471.105438 280.950073,469.958130 281.645203,470.065796   C286.863403,470.873840 287.739868,476.161896 290.770569,479.265106   C292.551422,481.088623 291.579315,482.728271 290.476288,484.611511   C273.907806,512.900085 273.374634,541.669373 288.587524,570.583496   C291.058197,575.279297 291.513275,578.692444 287.477478,582.401733   C285.682739,584.051208 284.330505,586.182190 282.080261,588.953003   C269.285461,571.231201 262.759491,551.918152 262.285309,531.032593   C261.808350,510.025879 267.356354,490.189606 279.054565,471.982239  z"></path>
</svg></svg></g></g><defs><clipPath id="SvgjsClipPath1228"><rect width="1000" height="1000" x="0" y="0" rx="250" ry="250"></rect></clipPath></defs></svg>